<svg width="128" height="113" viewBox="0 0 128 113" fill="none" xmlns="http://www.w3.org/2000/svg">
<path d="M33.0321 109.2C32.8721 109.2 32.7054 109.173 32.5321 109.12C32.3721 109.067 32.2388 108.94 32.1321 108.74C32.0254 108.54 31.9721 108.233 31.9721 107.82C31.9721 107.527 31.9921 107.167 32.0321 106.74C32.0854 106.313 32.1521 105.853 32.2321 105.36C32.3388 104.693 32.4254 103.993 32.4921 103.26C32.5721 102.513 32.6121 101.753 32.6121 100.98C32.6121 100.353 32.5788 99.8133 32.5121 99.36C32.4588 98.8933 32.3854 98.5333 32.2921 98.28C31.7854 98.2933 31.3054 98.3267 30.8521 98.38C30.3988 98.4333 29.9388 98.52 29.4721 98.64C29.3521 98.6533 29.2454 98.6733 29.1521 98.7C29.0721 98.7133 28.9921 98.72 28.9121 98.72C28.7921 98.72 28.7054 98.7 28.6521 98.66C28.5988 98.6067 28.5721 98.4867 28.5721 98.3C28.5721 98.0733 28.6054 97.84 28.6721 97.6C28.7388 97.3467 28.8388 97.1333 28.9721 96.96C29.1054 96.7733 29.2588 96.64 29.4321 96.56C29.6188 96.4667 29.8188 96.4067 30.0321 96.38C30.3654 96.34 30.7921 96.3067 31.3121 96.28C31.8321 96.24 32.3988 96.2067 33.0121 96.18C33.6388 96.1533 34.2521 96.14 34.8521 96.14C35.8254 96.14 36.5188 96.1467 36.9321 96.16C37.3588 96.1733 37.6454 96.1933 37.7921 96.22C37.9788 96.2467 38.1054 96.3067 38.1721 96.4C38.2521 96.48 38.2921 96.6133 38.2921 96.8C38.2921 97.16 38.1321 97.52 37.8121 97.88C37.6788 98.04 37.5388 98.1667 37.3921 98.26C37.2454 98.34 37.0521 98.3733 36.8121 98.36C36.5988 98.3333 36.2854 98.3133 35.8721 98.3C35.4588 98.2867 34.9988 98.28 34.4921 98.28C34.4788 98.7467 34.4388 99.2933 34.3721 99.92C34.3188 100.533 34.2521 101.153 34.1721 101.78C34.0921 102.393 34.0254 103.007 33.9721 103.62C33.9188 104.233 33.8921 104.793 33.8921 105.3C33.8921 105.767 33.9321 106.18 34.0121 106.54C34.1054 106.887 34.2854 107.187 34.5521 107.44C34.7388 107.627 34.8321 107.827 34.8321 108.04C34.8321 108.333 34.6654 108.6 34.3321 108.84C33.9988 109.08 33.5654 109.2 33.0321 109.2ZM39.9879 109.26C38.9746 109.26 38.1812 108.973 37.6079 108.4C37.0479 107.813 36.7679 107 36.7679 105.96C36.7679 105.013 36.9746 104.153 37.3879 103.38C37.8012 102.607 38.3546 101.993 39.0479 101.54C39.7546 101.073 40.5279 100.84 41.3679 100.84C42.1679 100.84 42.8079 101.04 43.2879 101.44C43.7679 101.827 44.0079 102.347 44.0079 103C44.0079 103.52 43.8479 104 43.5279 104.44C43.2079 104.88 42.7812 105.233 42.2479 105.5C41.7146 105.753 41.1212 105.88 40.4679 105.88C39.6679 105.88 39.0146 105.7 38.5079 105.34C38.5212 105.953 38.7279 106.447 39.1279 106.82C39.5412 107.193 40.0679 107.38 40.7079 107.38C41.0946 107.38 41.4879 107.313 41.8879 107.18C42.3012 107.033 42.6546 106.84 42.9479 106.6C43.1346 106.44 43.3079 106.36 43.4679 106.36C43.6012 106.36 43.7079 106.407 43.7879 106.5C43.8812 106.58 43.9279 106.687 43.9279 106.82C43.9279 107.113 43.6746 107.5 43.1679 107.98C42.2746 108.833 41.2146 109.26 39.9879 109.26ZM40.2879 104.56C40.7679 104.56 41.1679 104.46 41.4879 104.26C41.8079 104.06 41.9679 103.807 41.9679 103.5C41.9679 103.247 41.8612 103.053 41.6479 102.92C41.4346 102.773 41.1412 102.7 40.7679 102.7C40.2746 102.7 39.8412 102.833 39.4679 103.1C39.1079 103.353 38.8479 103.713 38.6879 104.18C38.8746 104.3 39.1146 104.393 39.4079 104.46C39.7012 104.527 39.9946 104.56 40.2879 104.56ZM48.6012 109.26C47.5878 109.26 46.7945 108.973 46.2212 108.4C45.6612 107.813 45.3812 107 45.3812 105.96C45.3812 105.013 45.5878 104.153 46.0012 103.38C46.4145 102.607 46.9678 101.993 47.6612 101.54C48.3678 101.073 49.1412 100.84 49.9812 100.84C50.7812 100.84 51.4212 101.04 51.9012 101.44C52.3812 101.827 52.6212 102.347 52.6212 103C52.6212 103.52 52.4612 104 52.1412 104.44C51.8212 104.88 51.3945 105.233 50.8612 105.5C50.3278 105.753 49.7345 105.88 49.0812 105.88C48.2812 105.88 47.6278 105.7 47.1212 105.34C47.1345 105.953 47.3412 106.447 47.7412 106.82C48.1545 107.193 48.6812 107.38 49.3212 107.38C49.7078 107.38 50.1012 107.313 50.5012 107.18C50.9145 107.033 51.2678 106.84 51.5612 106.6C51.7478 106.44 51.9212 106.36 52.0812 106.36C52.2145 106.36 52.3212 106.407 52.4012 106.5C52.4945 106.58 52.5412 106.687 52.5412 106.82C52.5412 107.113 52.2878 107.5 51.7812 107.98C50.8878 108.833 49.8278 109.26 48.6012 109.26ZM48.9012 104.56C49.3812 104.56 49.7812 104.46 50.1012 104.26C50.4212 104.06 50.5812 103.807 50.5812 103.5C50.5812 103.247 50.4745 103.053 50.2612 102.92C50.0478 102.773 49.7545 102.7 49.3812 102.7C48.8878 102.7 48.4545 102.833 48.0812 103.1C47.7212 103.353 47.4612 103.713 47.3012 104.18C47.4878 104.3 47.7278 104.393 48.0212 104.46C48.3145 104.527 48.6078 104.56 48.9012 104.56ZM55.2726 109.22C54.7926 109.22 54.5792 109.06 54.6326 108.74C54.7792 108.167 54.8992 107.587 54.9926 107C55.0992 106.4 55.1526 105.827 55.1526 105.28C55.1526 104.573 55.1059 104.06 55.0126 103.74C54.9326 103.407 54.8192 103.18 54.6726 103.06C54.5259 102.927 54.3459 102.827 54.1326 102.76C54.0392 102.72 53.9526 102.667 53.8726 102.6C53.8059 102.533 53.7726 102.44 53.7726 102.32C53.7726 102.133 53.8459 101.927 53.9926 101.7C54.1392 101.473 54.3459 101.28 54.6126 101.12C54.8926 100.947 55.2059 100.86 55.5526 100.86C56.0059 100.86 56.3192 101.02 56.4926 101.34C56.6659 101.647 56.7526 102.053 56.7526 102.56C56.7526 102.893 56.7192 103.267 56.6526 103.68C56.5859 104.093 56.5192 104.467 56.4526 104.8L56.5126 104.82C56.7792 104.113 57.0992 103.46 57.4726 102.86C57.8592 102.247 58.3059 101.753 58.8126 101.38C59.3192 101.007 59.9059 100.82 60.5726 100.82C61.2792 100.82 61.8192 101.033 62.1926 101.46C62.5659 101.887 62.7526 102.42 62.7526 103.06C62.7526 103.327 62.7192 103.58 62.6526 103.82C62.5992 104.06 62.5392 104.293 62.4726 104.52C62.4059 104.733 62.3459 104.953 62.2926 105.18C62.2526 105.407 62.2326 105.633 62.2326 105.86C62.2326 106.62 62.5926 107.133 63.3126 107.4C63.4992 107.48 63.5926 107.6 63.5926 107.76C63.5926 107.88 63.5526 108.053 63.4726 108.28C63.3926 108.507 63.2459 108.72 63.0326 108.92C62.8192 109.107 62.5059 109.2 62.0926 109.2C61.5592 109.2 61.1459 109.013 60.8526 108.64C60.5592 108.253 60.4126 107.767 60.4126 107.18C60.4126 106.847 60.4459 106.513 60.5126 106.18C60.5926 105.833 60.6726 105.513 60.7526 105.22C60.8059 104.993 60.8526 104.773 60.8926 104.56C60.9459 104.333 60.9726 104.133 60.9726 103.96C60.9726 103.347 60.6526 103.04 60.0126 103.04C59.4659 103.04 58.9859 103.247 58.5726 103.66C58.1592 104.06 57.8059 104.567 57.5126 105.18C57.2192 105.793 56.9792 106.413 56.7926 107.04V107.52C56.7926 108.013 56.6526 108.42 56.3726 108.74C56.1059 109.06 55.7392 109.22 55.2726 109.22Z" fill="#00A3FF"/>
<path d="M74.1459 109.26C73.2392 109.26 72.5392 109.16 72.0459 108.96C71.5525 108.76 71.2125 108.48 71.0259 108.12C70.8392 107.76 70.7459 107.333 70.7459 106.84C70.7459 106.6 70.7659 106.333 70.8059 106.04C70.8459 105.733 70.8925 105.387 70.9459 105C71.1859 103.533 71.3059 102.233 71.3059 101.1C71.3059 100.353 71.2725 99.72 71.2059 99.2C71.1525 98.6667 70.9792 98.16 70.6859 97.68C70.6325 97.6 70.5859 97.52 70.5459 97.44C70.5059 97.3467 70.4859 97.2733 70.4859 97.22C70.4859 97.06 70.5792 96.8933 70.7659 96.72C70.9525 96.5467 71.1792 96.4 71.4459 96.28C71.7125 96.16 71.9659 96.1 72.2059 96.1C72.6592 96.1 72.9392 96.28 73.0459 96.64C73.1659 97 73.2259 97.5133 73.2259 98.18C73.2259 98.4333 73.1992 98.84 73.1459 99.4C73.0925 99.9467 73.0125 100.647 72.9059 101.5C72.7992 102.327 72.7192 103.04 72.6659 103.64C72.6125 104.24 72.5859 104.72 72.5859 105.08C72.5859 105.613 72.6459 106.02 72.7659 106.3C72.8992 106.567 73.1125 106.753 73.4059 106.86C73.6992 106.967 74.1125 107.02 74.6459 107.02C75.2192 107.02 75.7659 106.973 76.2859 106.88C76.8059 106.773 77.3125 106.613 77.8059 106.4C77.8725 106.373 77.9325 106.353 77.9859 106.34C78.0392 106.327 78.0859 106.32 78.1259 106.32C78.2459 106.32 78.3592 106.393 78.4659 106.54C78.5725 106.687 78.6259 106.893 78.6259 107.16C78.6259 107.747 78.3059 108.207 77.6659 108.54C76.8125 109.02 75.6392 109.26 74.1459 109.26ZM81.2623 99.06C80.8889 99.0467 80.5889 98.9333 80.3623 98.72C80.1356 98.5067 80.0223 98.2067 80.0223 97.82C80.0356 97.4067 80.1756 97.0733 80.4423 96.82C80.7089 96.5533 81.0489 96.4267 81.4623 96.44C81.8489 96.4533 82.1489 96.5667 82.3623 96.78C82.5889 96.9933 82.6956 97.2933 82.6823 97.68C82.6689 98.08 82.5356 98.4133 82.2823 98.68C82.0289 98.9333 81.6889 99.06 81.2623 99.06ZM81.2823 109.2C80.8823 109.2 80.5689 109.093 80.3423 108.88C80.1156 108.653 80.0023 108.273 80.0023 107.74C80.0023 107.433 80.0289 107.133 80.0823 106.84C80.1489 106.547 80.2223 106.26 80.3023 105.98C80.3956 105.687 80.4689 105.387 80.5223 105.08C80.5889 104.773 80.6223 104.447 80.6223 104.1C80.6223 103.86 80.5889 103.633 80.5223 103.42C80.4556 103.193 80.3089 103.027 80.0823 102.92C79.9089 102.827 79.7556 102.733 79.6223 102.64C79.5023 102.533 79.4423 102.4 79.4423 102.24C79.4423 102.053 79.5289 101.853 79.7023 101.64C79.8756 101.427 80.1023 101.247 80.3823 101.1C80.6756 100.94 80.9756 100.86 81.2823 100.86C81.6156 100.86 81.8556 100.947 82.0023 101.12C82.1623 101.293 82.2689 101.513 82.3223 101.78C82.3756 102.047 82.4023 102.32 82.4023 102.6C82.4023 103.027 82.3689 103.447 82.3023 103.86C82.2356 104.26 82.1689 104.633 82.1023 104.98C82.0489 105.233 82.0089 105.467 81.9823 105.68C81.9556 105.893 81.9423 106.093 81.9423 106.28C81.9423 106.613 82.0223 106.867 82.1823 107.04C82.3423 107.2 82.5689 107.353 82.8623 107.5C82.9823 107.567 83.0423 107.667 83.0423 107.8C83.0423 107.907 82.9889 108.073 82.8823 108.3C82.7756 108.527 82.5889 108.733 82.3223 108.92C82.0689 109.107 81.7223 109.2 81.2823 109.2ZM87.6832 109.26C86.6699 109.26 85.8765 108.973 85.3032 108.4C84.7432 107.813 84.4632 107 84.4632 105.96C84.4632 105.013 84.6699 104.153 85.0832 103.38C85.4965 102.607 86.0499 101.993 86.7432 101.54C87.4499 101.073 88.2232 100.84 89.0632 100.84C89.8632 100.84 90.5032 101.04 90.9832 101.44C91.4632 101.827 91.7032 102.347 91.7032 103C91.7032 103.52 91.5432 104 91.2232 104.44C90.9032 104.88 90.4765 105.233 89.9432 105.5C89.4099 105.753 88.8165 105.88 88.1632 105.88C87.3632 105.88 86.7099 105.7 86.2032 105.34C86.2165 105.953 86.4232 106.447 86.8232 106.82C87.2365 107.193 87.7632 107.38 88.4032 107.38C88.7899 107.38 89.1832 107.313 89.5832 107.18C89.9965 107.033 90.3499 106.84 90.6432 106.6C90.8299 106.44 91.0032 106.36 91.1632 106.36C91.2965 106.36 91.4032 106.407 91.4832 106.5C91.5765 106.58 91.6232 106.687 91.6232 106.82C91.6232 107.113 91.3699 107.5 90.8632 107.98C89.9699 108.833 88.9099 109.26 87.6832 109.26ZM87.9832 104.56C88.4632 104.56 88.8632 104.46 89.1832 104.26C89.5032 104.06 89.6632 103.807 89.6632 103.5C89.6632 103.247 89.5565 103.053 89.3432 102.92C89.1299 102.773 88.8365 102.7 88.4632 102.7C87.9699 102.7 87.5365 102.833 87.1632 103.1C86.8032 103.353 86.5432 103.713 86.3832 104.18C86.5699 104.3 86.8099 104.393 87.1032 104.46C87.3965 104.527 87.6899 104.56 87.9832 104.56ZM94.4146 112.84C94.1613 112.84 93.9679 112.773 93.8346 112.64C93.7013 112.52 93.6413 112.293 93.6546 111.96C93.6546 111.76 93.6679 111.4 93.6946 110.88C93.7346 110.373 93.7813 109.767 93.8346 109.06C93.9013 108.367 93.9679 107.64 94.0346 106.88C94.1146 106.12 94.1879 105.387 94.2546 104.68C94.3213 103.973 94.3813 103.367 94.4346 102.86C94.3013 102.873 94.1746 102.887 94.0546 102.9C93.9346 102.9 93.8146 102.913 93.6946 102.94C93.5613 102.967 93.4613 102.98 93.3946 102.98C93.2346 102.98 93.1279 102.887 93.0746 102.7C93.0213 102.5 92.9946 102.313 92.9946 102.14C92.9946 101.94 93.0213 101.773 93.0746 101.64C93.1413 101.507 93.2746 101.4 93.4746 101.32C93.5946 101.267 93.7479 101.22 93.9346 101.18C94.1346 101.14 94.3413 101.107 94.5546 101.08C94.6213 100.293 94.7213 99.5467 94.8546 98.84C95.0013 98.1333 95.2213 97.5333 95.5146 97.04C95.8213 96.5333 96.2346 96.1333 96.7546 95.84C97.2879 95.5467 97.8279 95.4 98.3746 95.4C98.7746 95.4 99.1479 95.48 99.4946 95.64C99.8546 95.7867 100.141 96 100.355 96.28C100.581 96.5467 100.695 96.8533 100.695 97.2C100.695 97.4533 100.628 97.66 100.495 97.82C100.375 97.98 100.235 98.06 100.075 98.06C100.008 98.06 99.9346 98.0467 99.8546 98.02C99.7746 97.9933 99.6946 97.9667 99.6146 97.94C99.4679 97.8733 99.2813 97.82 99.0546 97.78C98.8413 97.7267 98.6079 97.7 98.3546 97.7C97.8346 97.7 97.4213 97.84 97.1146 98.12C96.8213 98.4 96.5946 98.7867 96.4346 99.28C96.2879 99.76 96.1679 100.32 96.0746 100.96C96.3546 100.933 96.6546 100.907 96.9746 100.88C97.2946 100.853 97.5546 100.84 97.7546 100.84C98.0746 100.84 98.3213 100.893 98.4946 101C98.6813 101.093 98.7746 101.28 98.7746 101.56C98.7746 101.733 98.7413 101.94 98.6746 102.18C98.6213 102.407 98.5346 102.613 98.4146 102.8C98.2946 102.973 98.1546 103.06 97.9946 103.06C97.9279 103.06 97.8146 103.04 97.6546 103C97.4813 102.973 97.2546 102.94 96.9746 102.9C96.6946 102.86 96.3413 102.833 95.9146 102.82C95.8613 103.393 95.8146 104.033 95.7746 104.74C95.7479 105.433 95.7346 106.167 95.7346 106.94C95.7346 107.78 95.7613 108.507 95.8146 109.12C95.8679 109.733 95.9213 110.233 95.9746 110.62C96.0013 110.793 96.0213 110.947 96.0346 111.08C96.0479 111.213 96.0546 111.32 96.0546 111.4C96.0546 111.787 95.9613 112.08 95.7746 112.28C95.5879 112.493 95.3679 112.64 95.1146 112.72C94.8613 112.8 94.6279 112.84 94.4146 112.84Z" fill="#AE46FF"/>
<path d="M37 50.62C37 67.56 57.33 81.29 82.39 81.29C83.14 81.29 83.87 81.29 84.6 81.29C88.27 85.98 97.02 93.36 114.28 89.92C114.28 89.92 104.41 89.64 102.89 78.02C117.66 73.02 127.78 62.62 127.78 50.66C127.78 33.72 107.45 20 82.39 20C57.33 20 37 33.68 37 50.62Z" fill="#00A3FF"/>
<circle r="7.5" transform="matrix(-1 0 0 1 107.28 50.5)" fill="white"/>
<circle r="7.5" transform="matrix(-1 0 0 1 107.28 50.5)" fill="white"/>
<circle r="7.5" transform="matrix(-1 0 0 1 107.28 50.5)" fill="white"/>
<circle r="7.5" transform="matrix(-1 0 0 1 107.28 50.5)" fill="white"/>
<circle r="7.5" transform="matrix(-1 0 0 1 83.28 50.5)" fill="white"/>
<circle r="7.5" transform="matrix(-1 0 0 1 83.28 50.5)" fill="white"/>
<circle r="7.5" transform="matrix(-1 0 0 1 83.28 50.5)" fill="white"/>
<circle r="7.5" transform="matrix(-1 0 0 1 83.28 50.5)" fill="white"/>
<circle r="7.5" transform="matrix(-1 0 0 1 59.28 50.5)" fill="white"/>
<circle r="7.5" transform="matrix(-1 0 0 1 59.28 50.5)" fill="white"/>
<circle r="7.5" transform="matrix(-1 0 0 1 59.28 50.5)" fill="white"/>
<circle r="7.5" transform="matrix(-1 0 0 1 59.28 50.5)" fill="white"/>
<path d="M90.78 30.62C90.78 47.56 70.45 61.29 45.39 61.29C44.64 61.29 43.9101 61.29 43.1801 61.29C39.5101 65.98 30.76 73.36 13.5 69.92C13.5 69.92 23.37 69.64 24.89 58.02C10.12 53.02 0 42.62 0 30.66C0 13.72 20.33 0 45.39 0C70.45 0 90.78 13.68 90.78 30.62Z" fill="#AE46FF"/>
<circle cx="20.5" cy="30.5" r="7.5" fill="white"/>
<circle cx="20.5" cy="30.5" r="7.5" fill="white"/>
<circle cx="20.5" cy="30.5" r="7.5" fill="white"/>
<circle cx="20.5" cy="30.5" r="7.5" fill="white"/>
<circle cx="44.5" cy="30.5" r="7.5" fill="white"/>
<circle cx="44.5" cy="30.5" r="7.5" fill="white"/>
<circle cx="44.5" cy="30.5" r="7.5" fill="white"/>
<circle cx="44.5" cy="30.5" r="7.5" fill="white"/>
<circle cx="68.5" cy="30.5" r="7.5" fill="white"/>
<circle cx="68.5" cy="30.5" r="7.5" fill="white"/>
<circle cx="68.5" cy="30.5" r="7.5" fill="white"/>
<circle cx="68.5" cy="30.5" r="7.5" fill="white"/>
</svg>
